<svg width="19" height="17" viewBox="0 0 19 17" fill="none" xmlns="http://www.w3.org/2000/svg">
<path d="M13.6667 4.70278C13.1144 4.70278 12.6667 5.15049 12.6667 5.70278C12.6667 6.25506 13.1144 6.70278 13.6667 6.70278V4.70278ZM5.33333 6.70278C5.88562 6.70278 6.33333 6.25506 6.33333 5.70278C6.33333 5.15049 5.88562 4.70278 5.33333 4.70278V6.70278ZM2.28963 14.9246L1.89709 15.8443L1.89709 15.8443L2.28963 14.9246ZM1.40122 14.1946L2.24646 13.6602L2.24646 13.6602L1.40122 14.1946ZM17.5988 14.1946L18.444 14.729V14.729L17.5988 14.1946ZM16.7104 14.9246L17.1029 15.8443L17.1029 15.8443L16.7104 14.9246ZM17.5988 6.62544L18.444 6.09106L18.444 6.09105L17.5988 6.62544ZM16.7104 5.89549L16.3178 6.81523H16.3178L16.7104 5.89549ZM1.40122 6.62544L0.555979 6.09106H0.555979L1.40122 6.62544ZM2.28963 5.89549L1.89709 4.97576H1.89709L2.28963 5.89549ZM8.5 9.98209C8.5 10.5344 8.94771 10.9821 9.5 10.9821C10.0523 10.9821 10.5 10.5344 10.5 9.98209H8.5ZM9.5 1.42346L10.1348 0.650811C9.76589 0.347679 9.23411 0.347679 8.86517 0.650811L9.5 1.42346ZM11.4693 4.33577C11.8961 4.68638 12.5262 4.62467 12.8768 4.19795C13.2274 3.77123 13.1657 3.14108 12.739 2.79047L11.4693 4.33577ZM6.261 2.79047C5.83428 3.14108 5.77257 3.77123 6.12318 4.19795C6.47379 4.62467 7.10394 4.68638 7.53066 4.33577L6.261 2.79047ZM16.8333 8.45866V12.3614H18.8333V8.45866H16.8333ZM14.4792 14.1173H4.52083V16.1173H14.4792V14.1173ZM2.16666 12.3614V8.45866H0.166664V12.3614H2.16666ZM13.6667 6.70278H14.4792V4.70278H13.6667V6.70278ZM4.52083 6.70278H5.33333V4.70278H4.52083V6.70278ZM4.52083 14.1173C3.9138 14.1173 3.5088 14.1167 3.19772 14.0955C2.89381 14.0748 2.75977 14.0379 2.68218 14.0048L1.89709 15.8443C2.27103 16.0039 2.65937 16.0634 3.06157 16.0909C3.45659 16.1178 3.94143 16.1173 4.52083 16.1173V14.1173ZM0.166664 12.3614C0.166664 12.8284 0.165478 13.253 0.201053 13.605C0.238601 13.9765 0.32402 14.3621 0.555979 14.729L2.24646 13.6602C2.24386 13.6561 2.21201 13.6125 2.19091 13.4039C2.16785 13.1757 2.16666 12.8692 2.16666 12.3614H0.166664ZM2.68218 14.0048C2.46515 13.9122 2.32314 13.7815 2.24646 13.6602L0.555979 14.729C0.874614 15.233 1.3531 15.6121 1.89709 15.8443L2.68218 14.0048ZM16.8333 12.3614C16.8333 12.8692 16.8321 13.1757 16.8091 13.4039C16.788 13.6125 16.7561 13.6561 16.7535 13.6602L18.444 14.729C18.676 14.3621 18.7614 13.9765 18.7989 13.605C18.8345 13.253 18.8333 12.8284 18.8333 12.3614H16.8333ZM14.4792 16.1173C15.0586 16.1173 15.5434 16.1178 15.9384 16.0909C16.3406 16.0634 16.729 16.0039 17.1029 15.8443L16.3178 14.0048C16.2402 14.0379 16.1062 14.0748 15.8023 14.0955C15.4912 14.1167 15.0862 14.1173 14.4792 14.1173V16.1173ZM16.7535 13.6602C16.6769 13.7815 16.5348 13.9122 16.3178 14.0048L17.1029 15.8443C17.6469 15.6121 18.1254 15.233 18.444 14.729L16.7535 13.6602ZM18.8333 8.45866C18.8333 7.99163 18.8345 7.56702 18.7989 7.21506C18.7614 6.84357 18.676 6.45795 18.444 6.09106L16.7535 7.15983C16.7561 7.16393 16.788 7.20751 16.8091 7.41618C16.8321 7.64437 16.8333 7.95087 16.8333 8.45866H18.8333ZM14.4792 6.70278C15.0862 6.70278 15.4912 6.70332 15.8023 6.72455C16.1062 6.74528 16.2402 6.78211 16.3178 6.81523L17.1029 4.97576C16.729 4.81616 16.3406 4.75663 15.9384 4.72919C15.5434 4.70223 15.0586 4.70278 14.4792 4.70278V6.70278ZM18.444 6.09105C18.1254 5.58707 17.6469 5.20794 17.1029 4.97576L16.3178 6.81523C16.5348 6.90785 16.6769 7.03854 16.7535 7.15983L18.444 6.09105ZM2.16666 8.45866C2.16666 7.95087 2.16785 7.64437 2.19091 7.41618C2.21201 7.20751 2.24386 7.16393 2.24646 7.15983L0.555979 6.09106C0.32402 6.45795 0.238601 6.84357 0.201053 7.21506C0.165478 7.56702 0.166664 7.99163 0.166664 8.45866H2.16666ZM4.52083 4.70278C3.94143 4.70278 3.45659 4.70223 3.06157 4.72919C2.65937 4.75663 2.27103 4.81616 1.89709 4.97576L2.68218 6.81523C2.75977 6.78211 2.89381 6.74528 3.19772 6.72455C3.5088 6.70332 3.9138 6.70278 4.52083 6.70278V4.70278ZM2.24646 7.15983C2.32314 7.03854 2.46515 6.90785 2.68218 6.81523L1.89709 4.97576C1.3531 5.20794 0.874614 5.58707 0.555979 6.09106L2.24646 7.15983ZM10.5 9.98209L10.5 1.42346L8.5 1.42346L8.5 9.98209H10.5ZM8.86517 2.19611L11.4693 4.33577L12.739 2.79047L10.1348 0.650811L8.86517 2.19611ZM8.86517 0.650811L6.261 2.79047L7.53066 4.33577L10.1348 2.19611L8.86517 0.650811Z" fill="black"/>
</svg>
