<svg width="18" height="18" viewBox="0 0 18 18" fill="none" xmlns="http://www.w3.org/2000/svg">
<path d="M10 9C10 8.44772 10.4477 8 11 8H16C16.5523 8 17 8.44772 17 9V16C17 16.5523 16.5523 17 16 17H11C10.4477 17 10 16.5523 10 16V9Z" stroke="white" stroke-linecap="round"/>
<path d="M1 2C1 1.44772 1.44772 1 2 1H6C6.55228 1 7 1.44772 7 2V9C7 9.55228 6.55228 10 6 10H2C1.44772 10 1 9.55228 1 9V2Z" stroke="white" stroke-linecap="round"/>
<path d="M1 14C1 13.4477 1.44772 13 2 13H6C6.55228 13 7 13.4477 7 14V16C7 16.5523 6.55228 17 6 17H2C1.44772 17 1 16.5523 1 16V14Z" stroke="white" stroke-linecap="round"/>
<path d="M10 2C10 1.44772 10.4477 1 11 1H16C16.5523 1 17 1.44772 17 2V4C17 4.55228 16.5523 5 16 5H11C10.4477 5 10 4.55228 10 4V2Z" stroke="white" stroke-linecap="round"/>
</svg>
