<svg width="26" height="26" viewBox="0 0 26 26" fill="none" xmlns="http://www.w3.org/2000/svg">
<g id="settings">
<rect x="1" y="1" width="24" height="24" fill="white"/>
<rect x="0.5" y="0.5" width="25" height="25" stroke="white" stroke-opacity="0.5"/>
<path id="Vector 66" d="M7 21C7 21 7 15.4243 7 12M5 9L7 9M9 9L7 9M7 9L7 5" stroke="black" stroke-width="2" stroke-linecap="round" stroke-linejoin="round"/>
<path id="Vector 68" d="M19 21C19 21 19 18.4243 19 15M17 12L19 12M21 12L19 12M19 12L19 5" stroke="black" stroke-width="2" stroke-linecap="round" stroke-linejoin="round"/>
<path id="Vector 67" d="M13 5C13 5 13 10.5757 13 14M15 17L13 17M11 17L13 17M13 17L13 21" stroke="black" stroke-width="2" stroke-linecap="round" stroke-linejoin="round"/>
</g>
</svg>
